<mxfile host="app.diagrams.net" agent="Mozilla/5.0 (Windows NT 10.0; Win64; x64) AppleWebKit/537.36 (KHTML, like Gecko) Chrome/131.0.0.0 Safari/537.36" version="26.0.6">
  <diagram name="Страница — 1" id="l-s2C9QOgJASiCsaeZg0">
    <mxGraphModel dx="1434" dy="780" grid="1" gridSize="10" guides="1" tooltips="1" connect="1" arrows="1" fold="1" page="1" pageScale="1" pageWidth="827" pageHeight="1169" math="0" shadow="0">
      <root>
        <mxCell id="0" />
        <mxCell id="1" parent="0" />
        <mxCell id="Te2QZDgjbKBpF7h5LiWf-8" value="" style="group" vertex="1" connectable="0" parent="1">
          <mxGeometry x="282" y="40" width="120" height="710" as="geometry" />
        </mxCell>
        <mxCell id="Te2QZDgjbKBpF7h5LiWf-9" value="" style="rounded=0;whiteSpace=wrap;html=1;" vertex="1" parent="Te2QZDgjbKBpF7h5LiWf-8">
          <mxGeometry width="120" height="710" as="geometry" />
        </mxCell>
        <mxCell id="Te2QZDgjbKBpF7h5LiWf-10" value="Cashier" style="rounded=0;whiteSpace=wrap;html=1;fillColor=#e1d5e7;strokeColor=#9673a6;" vertex="1" parent="Te2QZDgjbKBpF7h5LiWf-8">
          <mxGeometry width="120" height="20" as="geometry" />
        </mxCell>
        <mxCell id="Te2QZDgjbKBpF7h5LiWf-32" value="&lt;span style=&quot;font-size: 6px;&quot;&gt;product identifier&lt;/span&gt;" style="rounded=1;whiteSpace=wrap;html=1;" vertex="1" parent="Te2QZDgjbKBpF7h5LiWf-8">
          <mxGeometry x="34.5" y="160" width="51" height="20" as="geometry" />
        </mxCell>
        <mxCell id="Te2QZDgjbKBpF7h5LiWf-54" value="&lt;span style=&quot;color: rgba(0, 0, 0, 0); font-family: monospace; font-size: 0px; text-align: start; text-wrap-mode: nowrap;&quot;&gt;%3CmxGraphModel%3E%3Croot%3E%3CmxCell%20id%3D%220%22%2F%3E%3CmxCell%20id%3D%221%22%20parent%3D%220%22%2F%3E%3CmxCell%20id%3D%222%22%20value%3D%22%22%20style%3D%22group%22%20vertex%3D%221%22%20connectable%3D%220%22%20parent%3D%221%22%3E%3CmxGeometry%20x%3D%22283%22%20y%3D%2240%22%20width%3D%22120%22%20height%3D%22710%22%20as%3D%22geometry%22%2F%3E%3C%2FmxCell%3E%3CmxCell%20id%3D%223%22%20value%3D%22%22%20style%3D%22rounded%3D0%3BwhiteSpace%3Dwrap%3Bhtml%3D1%3B%22%20vertex%3D%221%22%20parent%3D%222%22%3E%3CmxGeometry%20width%3D%22120%22%20height%3D%22710%22%20as%3D%22geometry%22%2F%3E%3C%2FmxCell%3E%3CmxCell%20id%3D%224%22%20value%3D%22Cashier%22%20style%3D%22rounded%3D0%3BwhiteSpace%3Dwrap%3Bhtml%3D1%3BfillColor%3D%23e1d5e7%3BstrokeColor%3D%239673a6%3B%22%20vertex%3D%221%22%20parent%3D%222%22%3E%3CmxGeometry%20width%3D%22120%22%20height%3D%2220%22%20as%3D%22geometry%22%2F%3E%3C%2FmxCell%3E%3CmxCell%20id%3D%225%22%20value%3D%22%26lt%3Bspan%20style%3D%26quot%3Bfont-size%3A%206px%3B%26quot%3B%26gt%3Bproduct%20identifier%26lt%3B%2Fspan%26gt%3B%22%20style%3D%22rounded%3D1%3BwhiteSpace%3Dwrap%3Bhtml%3D1%3B%22%20vertex%3D%221%22%20parent%3D%222%22%3E%3CmxGeometry%20x%3D%2234.5%22%20y%3D%22160%22%20width%3D%2251%22%20height%3D%2220%22%20as%3D%22geometry%22%2F%3E%3C%2FmxCell%3E%3CmxCell%20id%3D%226%22%20value%3D%22%22%20style%3D%22rhombus%3BwhiteSpace%3Dwrap%3Bhtml%3D1%3BfillColor%3D%23121212%3B%22%20vertex%3D%221%22%20parent%3D%222%22%3E%3CmxGeometry%20x%3D%2251%22%20y%3D%22120%22%20width%3D%2220%22%20height%3D%2220%22%20as%3D%22geometry%22%2F%3E%3C%2FmxCell%3E%3CmxCell%20id%3D%227%22%20value%3D%22%26lt%3Bfont%20style%3D%26quot%3Bfont-size%3A%206px%3B%26quot%3B%26gt%3Bis%20empty%3F%26lt%3B%2Ffont%26gt%3B%22%20style%3D%22text%3Bhtml%3D1%3Balign%3Dcenter%3BverticalAlign%3Dmiddle%3BwhiteSpace%3Dwrap%3Brounded%3D0%3B%22%20vertex%3D%221%22%20parent%3D%222%22%3E%3CmxGeometry%20x%3D%2260%22%20y%3D%22110%22%20width%3D%2240%22%20height%3D%2210%22%20as%3D%22geometry%22%2F%3E%3C%2FmxCell%3E%3CmxCell%20id%3D%228%22%20style%3D%22edgeStyle%3DorthogonalEdgeStyle%3Brounded%3D0%3BorthogonalLoop%3D1%3BjettySize%3Dauto%3Bhtml%3D1%3BfillColor%3D%23d5e8d4%3BstrokeColor%3D%23000000%3B%22%20edge%3D%221%22%20parent%3D%222%22%20source%3D%226%22%3E%3CmxGeometry%20relative%3D%221%22%20as%3D%22geometry%22%3E%3CmxPoint%20x%3D%2261%22%20y%3D%22160%22%20as%3D%22targetPoint%22%2F%3E%3CArray%20as%3D%22points%22%3E%3CmxPoint%20x%3D%2261%22%20y%3D%22160%22%2F%3E%3C%2FArray%3E%3C%2FmxGeometry%3E%3C%2FmxCell%3E%3CmxCell%20id%3D%229%22%20value%3D%22%26lt%3Bspan%20style%3D%26quot%3Bfont-size%3A%206px%3B%26quot%3B%26gt%3Bcalc%20sale%20and%20tax%20pay%26lt%3B%2Fspan%26gt%3B%22%20style%3D%22rounded%3D1%3BwhiteSpace%3Dwrap%3Bhtml%3D1%3B%22%20vertex%3D%221%22%20parent%3D%222%22%3E%3CmxGeometry%20x%3D%2235.5%22%20y%3D%22320%22%20width%3D%2251%22%20height%3D%2230%22%20as%3D%22geometry%22%2F%3E%3C%2FmxCell%3E%3CmxCell%20id%3D%2210%22%20value%3D%22%22%20style%3D%22rounded%3D0%3BwhiteSpace%3Dwrap%3Bhtml%3D1%3BfillColor%3D%23121212%3B%22%20vertex%3D%221%22%20parent%3D%222%22%3E%3CmxGeometry%20x%3D%2228.25%22%20y%3D%22370%22%20width%3D%2265.5%22%20height%3D%2210%22%20as%3D%22geometry%22%2F%3E%3C%2FmxCell%3E%3C%2Froot%3E%3C%2FmxGraphModel%3E&lt;/span&gt;" style="rhombus;whiteSpace=wrap;html=1;fillColor=#121212;" vertex="1" parent="Te2QZDgjbKBpF7h5LiWf-8">
          <mxGeometry x="51" y="120" width="20" height="20" as="geometry" />
        </mxCell>
        <mxCell id="Te2QZDgjbKBpF7h5LiWf-55" value="&lt;font style=&quot;font-size: 6px;&quot;&gt;is empty?&lt;/font&gt;" style="text;html=1;align=center;verticalAlign=middle;whiteSpace=wrap;rounded=0;" vertex="1" parent="Te2QZDgjbKBpF7h5LiWf-8">
          <mxGeometry x="60" y="110" width="40" height="10" as="geometry" />
        </mxCell>
        <mxCell id="Te2QZDgjbKBpF7h5LiWf-57" style="edgeStyle=orthogonalEdgeStyle;rounded=0;orthogonalLoop=1;jettySize=auto;html=1;fillColor=#d5e8d4;strokeColor=#000000;" edge="1" parent="Te2QZDgjbKBpF7h5LiWf-8" source="Te2QZDgjbKBpF7h5LiWf-54">
          <mxGeometry relative="1" as="geometry">
            <mxPoint x="61" y="160" as="targetPoint" />
            <Array as="points">
              <mxPoint x="61" y="160" />
            </Array>
          </mxGeometry>
        </mxCell>
        <mxCell id="Te2QZDgjbKBpF7h5LiWf-76" value="&lt;span style=&quot;font-size: 6px;&quot;&gt;calc sale and tax pay&lt;/span&gt;" style="rounded=1;whiteSpace=wrap;html=1;" vertex="1" parent="Te2QZDgjbKBpF7h5LiWf-8">
          <mxGeometry x="35.5" y="320" width="51" height="30" as="geometry" />
        </mxCell>
        <mxCell id="Te2QZDgjbKBpF7h5LiWf-130" value="&lt;span style=&quot;font-size: 6px;&quot;&gt;enter&amp;nbsp;iden product&lt;/span&gt;" style="rounded=1;whiteSpace=wrap;html=1;" vertex="1" parent="Te2QZDgjbKBpF7h5LiWf-8">
          <mxGeometry x="55.5" y="436" width="51" height="20" as="geometry" />
        </mxCell>
        <mxCell id="Te2QZDgjbKBpF7h5LiWf-4" value="" style="group" vertex="1" connectable="0" parent="1">
          <mxGeometry x="41" y="40" width="130" height="710" as="geometry" />
        </mxCell>
        <mxCell id="Te2QZDgjbKBpF7h5LiWf-2" value="" style="rounded=0;whiteSpace=wrap;html=1;" vertex="1" parent="Te2QZDgjbKBpF7h5LiWf-4">
          <mxGeometry x="1" y="9.81" width="120" height="700.19" as="geometry" />
        </mxCell>
        <mxCell id="Te2QZDgjbKBpF7h5LiWf-3" value="Customer" style="rounded=0;whiteSpace=wrap;html=1;fillColor=#e1d5e7;strokeColor=#9673a6;" vertex="1" parent="Te2QZDgjbKBpF7h5LiWf-4">
          <mxGeometry width="130" height="19.615384615384613" as="geometry" />
        </mxCell>
        <mxCell id="Te2QZDgjbKBpF7h5LiWf-14" style="edgeStyle=orthogonalEdgeStyle;rounded=0;orthogonalLoop=1;jettySize=auto;html=1;" edge="1" parent="Te2QZDgjbKBpF7h5LiWf-4" source="Te2QZDgjbKBpF7h5LiWf-11" target="Te2QZDgjbKBpF7h5LiWf-12">
          <mxGeometry relative="1" as="geometry" />
        </mxCell>
        <mxCell id="Te2QZDgjbKBpF7h5LiWf-11" value="" style="ellipse;whiteSpace=wrap;html=1;aspect=fixed;fillColor=#000000;" vertex="1" parent="Te2QZDgjbKBpF7h5LiWf-4">
          <mxGeometry x="55" y="29.423076923076923" width="9.807692307692307" height="9.807692307692307" as="geometry" />
        </mxCell>
        <mxCell id="Te2QZDgjbKBpF7h5LiWf-12" value="&lt;font style=&quot;font-size: 6px;&quot;&gt;go to pos-system&lt;/font&gt;" style="rounded=1;whiteSpace=wrap;html=1;" vertex="1" parent="Te2QZDgjbKBpF7h5LiWf-4">
          <mxGeometry x="34.5" y="58.84615384615385" width="51" height="19.615384615384613" as="geometry" />
        </mxCell>
        <mxCell id="Te2QZDgjbKBpF7h5LiWf-80" value="&lt;span style=&quot;font-size: 6px;&quot;&gt;pay product&lt;/span&gt;" style="rounded=1;whiteSpace=wrap;html=1;" vertex="1" parent="Te2QZDgjbKBpF7h5LiWf-4">
          <mxGeometry x="33.400000000000006" y="470" width="51" height="20" as="geometry" />
        </mxCell>
        <mxCell id="Te2QZDgjbKBpF7h5LiWf-90" value="&lt;span style=&quot;font-size: 6px;&quot;&gt;leaves with check&lt;/span&gt;" style="rounded=1;whiteSpace=wrap;html=1;" vertex="1" parent="Te2QZDgjbKBpF7h5LiWf-4">
          <mxGeometry x="33.4" y="599" width="51" height="20" as="geometry" />
        </mxCell>
        <mxCell id="Te2QZDgjbKBpF7h5LiWf-101" value="" style="ellipse;whiteSpace=wrap;html=1;aspect=fixed;fillColor=#000000;" vertex="1" parent="Te2QZDgjbKBpF7h5LiWf-4">
          <mxGeometry x="54" y="639.0030769230768" width="9.807692307692307" height="9.807692307692307" as="geometry" />
        </mxCell>
        <mxCell id="Te2QZDgjbKBpF7h5LiWf-102" style="edgeStyle=orthogonalEdgeStyle;rounded=0;orthogonalLoop=1;jettySize=auto;html=1;entryX=0.5;entryY=0;entryDx=0;entryDy=0;" edge="1" parent="Te2QZDgjbKBpF7h5LiWf-4" source="Te2QZDgjbKBpF7h5LiWf-90" target="Te2QZDgjbKBpF7h5LiWf-101">
          <mxGeometry relative="1" as="geometry" />
        </mxCell>
        <mxCell id="Te2QZDgjbKBpF7h5LiWf-5" value="" style="group" vertex="1" connectable="0" parent="1">
          <mxGeometry x="162" y="40" width="128" height="710" as="geometry" />
        </mxCell>
        <mxCell id="Te2QZDgjbKBpF7h5LiWf-6" value="" style="rounded=0;whiteSpace=wrap;html=1;" vertex="1" parent="Te2QZDgjbKBpF7h5LiWf-5">
          <mxGeometry width="120" height="710" as="geometry" />
        </mxCell>
        <mxCell id="Te2QZDgjbKBpF7h5LiWf-7" value="POS-system" style="rounded=0;whiteSpace=wrap;html=1;fillColor=#e1d5e7;strokeColor=#9673a6;" vertex="1" parent="Te2QZDgjbKBpF7h5LiWf-5">
          <mxGeometry width="120" height="20" as="geometry" />
        </mxCell>
        <mxCell id="Te2QZDgjbKBpF7h5LiWf-16" value="&lt;font style=&quot;font-size: 6px;&quot;&gt;new sale&lt;/font&gt;" style="rounded=1;whiteSpace=wrap;html=1;" vertex="1" parent="Te2QZDgjbKBpF7h5LiWf-5">
          <mxGeometry x="156.5" y="60" width="51" height="20" as="geometry" />
        </mxCell>
        <mxCell id="Te2QZDgjbKBpF7h5LiWf-38" style="edgeStyle=orthogonalEdgeStyle;rounded=0;orthogonalLoop=1;jettySize=auto;html=1;entryX=0.5;entryY=0;entryDx=0;entryDy=0;" edge="1" parent="Te2QZDgjbKBpF7h5LiWf-5" source="Te2QZDgjbKBpF7h5LiWf-35" target="Te2QZDgjbKBpF7h5LiWf-37">
          <mxGeometry relative="1" as="geometry" />
        </mxCell>
        <mxCell id="Te2QZDgjbKBpF7h5LiWf-35" value="&lt;span style=&quot;font-size: 6px;&quot;&gt;print product character&lt;/span&gt;" style="rounded=1;whiteSpace=wrap;html=1;" vertex="1" parent="Te2QZDgjbKBpF7h5LiWf-5">
          <mxGeometry x="34.5" y="150" width="51" height="30" as="geometry" />
        </mxCell>
        <mxCell id="Te2QZDgjbKBpF7h5LiWf-51" style="edgeStyle=orthogonalEdgeStyle;rounded=0;orthogonalLoop=1;jettySize=auto;html=1;entryX=0.5;entryY=0;entryDx=0;entryDy=0;" edge="1" parent="Te2QZDgjbKBpF7h5LiWf-5" source="Te2QZDgjbKBpF7h5LiWf-37" target="Te2QZDgjbKBpF7h5LiWf-40">
          <mxGeometry relative="1" as="geometry" />
        </mxCell>
        <mxCell id="Te2QZDgjbKBpF7h5LiWf-56" style="edgeStyle=orthogonalEdgeStyle;rounded=0;orthogonalLoop=1;jettySize=auto;html=1;entryX=0.5;entryY=0;entryDx=0;entryDy=0;" edge="1" parent="Te2QZDgjbKBpF7h5LiWf-5" source="Te2QZDgjbKBpF7h5LiWf-37" target="Te2QZDgjbKBpF7h5LiWf-50">
          <mxGeometry relative="1" as="geometry">
            <Array as="points">
              <mxPoint x="101" y="205" />
              <mxPoint x="101" y="229" />
            </Array>
          </mxGeometry>
        </mxCell>
        <mxCell id="Te2QZDgjbKBpF7h5LiWf-37" value="" style="rounded=0;whiteSpace=wrap;html=1;fillColor=#121212;" vertex="1" parent="Te2QZDgjbKBpF7h5LiWf-5">
          <mxGeometry x="27.25" y="200" width="65.5" height="10" as="geometry" />
        </mxCell>
        <mxCell id="Te2QZDgjbKBpF7h5LiWf-39" value="&lt;span style=&quot;font-size: 6px;&quot;&gt;calc sale&lt;/span&gt;" style="rounded=1;whiteSpace=wrap;html=1;" vertex="1" parent="Te2QZDgjbKBpF7h5LiWf-5">
          <mxGeometry x="3.25" y="229" width="31" height="10" as="geometry" />
        </mxCell>
        <mxCell id="Te2QZDgjbKBpF7h5LiWf-40" value="&lt;span style=&quot;font-size: 6px;&quot;&gt;name&lt;/span&gt;" style="rounded=1;whiteSpace=wrap;html=1;" vertex="1" parent="Te2QZDgjbKBpF7h5LiWf-5">
          <mxGeometry x="44.25" y="229" width="31" height="10" as="geometry" />
        </mxCell>
        <mxCell id="Te2QZDgjbKBpF7h5LiWf-50" value="&lt;span style=&quot;font-size: 6px;&quot;&gt;character&lt;/span&gt;" style="rounded=1;whiteSpace=wrap;html=1;" vertex="1" parent="Te2QZDgjbKBpF7h5LiWf-5">
          <mxGeometry x="85.25" y="229" width="31" height="10" as="geometry" />
        </mxCell>
        <mxCell id="Te2QZDgjbKBpF7h5LiWf-53" style="edgeStyle=orthogonalEdgeStyle;rounded=0;orthogonalLoop=1;jettySize=auto;html=1;entryX=0.516;entryY=-0.014;entryDx=0;entryDy=0;entryPerimeter=0;" edge="1" parent="Te2QZDgjbKBpF7h5LiWf-5" source="Te2QZDgjbKBpF7h5LiWf-37" target="Te2QZDgjbKBpF7h5LiWf-39">
          <mxGeometry relative="1" as="geometry">
            <Array as="points">
              <mxPoint x="19" y="205" />
            </Array>
          </mxGeometry>
        </mxCell>
        <mxCell id="Te2QZDgjbKBpF7h5LiWf-73" value="&lt;span style=&quot;font-size: 6px;&quot;&gt;calc sale and tax&lt;/span&gt;" style="rounded=1;whiteSpace=wrap;html=1;" vertex="1" parent="Te2QZDgjbKBpF7h5LiWf-5">
          <mxGeometry x="34.25" y="290" width="51" height="20" as="geometry" />
        </mxCell>
        <mxCell id="Te2QZDgjbKBpF7h5LiWf-114" style="edgeStyle=orthogonalEdgeStyle;rounded=0;orthogonalLoop=1;jettySize=auto;html=1;" edge="1" parent="Te2QZDgjbKBpF7h5LiWf-5" source="Te2QZDgjbKBpF7h5LiWf-79" target="Te2QZDgjbKBpF7h5LiWf-86">
          <mxGeometry relative="1" as="geometry" />
        </mxCell>
        <mxCell id="Te2QZDgjbKBpF7h5LiWf-79" value="&lt;span style=&quot;font-size: 6px;&quot;&gt;proces pay&lt;/span&gt;" style="rounded=1;whiteSpace=wrap;html=1;" vertex="1" parent="Te2QZDgjbKBpF7h5LiWf-5">
          <mxGeometry x="34.25" y="472" width="51" height="20" as="geometry" />
        </mxCell>
        <mxCell id="Te2QZDgjbKBpF7h5LiWf-86" value="&lt;span style=&quot;font-size: 6px;&quot;&gt;acc pay process&lt;/span&gt;" style="rounded=1;whiteSpace=wrap;html=1;" vertex="1" parent="Te2QZDgjbKBpF7h5LiWf-5">
          <mxGeometry x="34.25" y="556" width="51" height="20" as="geometry" />
        </mxCell>
        <mxCell id="Te2QZDgjbKBpF7h5LiWf-92" value="" style="rounded=0;whiteSpace=wrap;html=1;fillColor=#121212;" vertex="1" parent="Te2QZDgjbKBpF7h5LiWf-5">
          <mxGeometry x="27.25" y="260" width="65.5" height="10" as="geometry" />
        </mxCell>
        <mxCell id="Te2QZDgjbKBpF7h5LiWf-95" style="edgeStyle=orthogonalEdgeStyle;rounded=0;orthogonalLoop=1;jettySize=auto;html=1;entryX=0.004;entryY=0.446;entryDx=0;entryDy=0;entryPerimeter=0;exitX=0.197;exitY=0.984;exitDx=0;exitDy=0;exitPerimeter=0;" edge="1" parent="Te2QZDgjbKBpF7h5LiWf-5" source="Te2QZDgjbKBpF7h5LiWf-39" target="Te2QZDgjbKBpF7h5LiWf-92">
          <mxGeometry relative="1" as="geometry">
            <Array as="points">
              <mxPoint x="9" y="265" />
              <mxPoint x="19" y="265" />
            </Array>
          </mxGeometry>
        </mxCell>
        <mxCell id="Te2QZDgjbKBpF7h5LiWf-96" style="edgeStyle=orthogonalEdgeStyle;rounded=0;orthogonalLoop=1;jettySize=auto;html=1;entryX=0.982;entryY=0.594;entryDx=0;entryDy=0;entryPerimeter=0;exitX=0.727;exitY=0.896;exitDx=0;exitDy=0;exitPerimeter=0;" edge="1" parent="Te2QZDgjbKBpF7h5LiWf-5" source="Te2QZDgjbKBpF7h5LiWf-50" target="Te2QZDgjbKBpF7h5LiWf-92">
          <mxGeometry relative="1" as="geometry">
            <Array as="points">
              <mxPoint x="108" y="265" />
              <mxPoint x="92" y="265" />
            </Array>
          </mxGeometry>
        </mxCell>
        <mxCell id="Te2QZDgjbKBpF7h5LiWf-97" style="edgeStyle=orthogonalEdgeStyle;rounded=0;orthogonalLoop=1;jettySize=auto;html=1;entryX=0.495;entryY=0.138;entryDx=0;entryDy=0;entryPerimeter=0;" edge="1" parent="Te2QZDgjbKBpF7h5LiWf-5" source="Te2QZDgjbKBpF7h5LiWf-40" target="Te2QZDgjbKBpF7h5LiWf-92">
          <mxGeometry relative="1" as="geometry">
            <Array as="points">
              <mxPoint x="60" y="240" />
              <mxPoint x="59" y="240" />
            </Array>
          </mxGeometry>
        </mxCell>
        <mxCell id="Te2QZDgjbKBpF7h5LiWf-131" value="&lt;span style=&quot;font-size: 6px;&quot;&gt;delete product&lt;/span&gt;" style="rounded=1;whiteSpace=wrap;html=1;" vertex="1" parent="Te2QZDgjbKBpF7h5LiWf-5">
          <mxGeometry x="35.5" y="353" width="51" height="20" as="geometry" />
        </mxCell>
        <mxCell id="Te2QZDgjbKBpF7h5LiWf-88" value="&lt;span style=&quot;font-size: 6px;&quot;&gt;check&lt;/span&gt;" style="rounded=1;whiteSpace=wrap;html=1;" vertex="1" parent="Te2QZDgjbKBpF7h5LiWf-5">
          <mxGeometry x="34.5" y="601" width="51" height="20" as="geometry" />
        </mxCell>
        <mxCell id="Te2QZDgjbKBpF7h5LiWf-89" style="edgeStyle=orthogonalEdgeStyle;rounded=0;orthogonalLoop=1;jettySize=auto;html=1;entryX=0.5;entryY=0;entryDx=0;entryDy=0;" edge="1" parent="Te2QZDgjbKBpF7h5LiWf-5" source="Te2QZDgjbKBpF7h5LiWf-86" target="Te2QZDgjbKBpF7h5LiWf-88">
          <mxGeometry relative="1" as="geometry" />
        </mxCell>
        <mxCell id="Te2QZDgjbKBpF7h5LiWf-17" style="edgeStyle=orthogonalEdgeStyle;rounded=0;orthogonalLoop=1;jettySize=auto;html=1;" edge="1" parent="1" source="Te2QZDgjbKBpF7h5LiWf-12" target="Te2QZDgjbKBpF7h5LiWf-16">
          <mxGeometry relative="1" as="geometry">
            <Array as="points">
              <mxPoint x="180" y="110" />
              <mxPoint x="180" y="110" />
            </Array>
          </mxGeometry>
        </mxCell>
        <mxCell id="Te2QZDgjbKBpF7h5LiWf-33" style="edgeStyle=orthogonalEdgeStyle;rounded=0;orthogonalLoop=1;jettySize=auto;html=1;entryX=0.5;entryY=0;entryDx=0;entryDy=0;" edge="1" parent="1" source="Te2QZDgjbKBpF7h5LiWf-16" target="Te2QZDgjbKBpF7h5LiWf-54">
          <mxGeometry relative="1" as="geometry">
            <Array as="points" />
          </mxGeometry>
        </mxCell>
        <mxCell id="Te2QZDgjbKBpF7h5LiWf-36" style="edgeStyle=orthogonalEdgeStyle;rounded=0;orthogonalLoop=1;jettySize=auto;html=1;entryX=1;entryY=0.5;entryDx=0;entryDy=0;" edge="1" parent="1" source="Te2QZDgjbKBpF7h5LiWf-32" target="Te2QZDgjbKBpF7h5LiWf-35">
          <mxGeometry relative="1" as="geometry">
            <Array as="points">
              <mxPoint x="300" y="205" />
              <mxPoint x="300" y="205" />
            </Array>
          </mxGeometry>
        </mxCell>
        <mxCell id="Te2QZDgjbKBpF7h5LiWf-75" style="edgeStyle=orthogonalEdgeStyle;rounded=0;orthogonalLoop=1;jettySize=auto;html=1;entryX=1;entryY=0.5;entryDx=0;entryDy=0;fillColor=#f8cecc;strokeColor=#000000;" edge="1" parent="1" source="Te2QZDgjbKBpF7h5LiWf-54" target="Te2QZDgjbKBpF7h5LiWf-73">
          <mxGeometry relative="1" as="geometry">
            <Array as="points">
              <mxPoint x="380" y="170" />
              <mxPoint x="380" y="340" />
            </Array>
          </mxGeometry>
        </mxCell>
        <mxCell id="Te2QZDgjbKBpF7h5LiWf-77" style="edgeStyle=orthogonalEdgeStyle;rounded=0;orthogonalLoop=1;jettySize=auto;html=1;" edge="1" parent="1" source="Te2QZDgjbKBpF7h5LiWf-73" target="Te2QZDgjbKBpF7h5LiWf-76">
          <mxGeometry relative="1" as="geometry">
            <Array as="points">
              <mxPoint x="222" y="380" />
            </Array>
          </mxGeometry>
        </mxCell>
        <mxCell id="Te2QZDgjbKBpF7h5LiWf-85" style="edgeStyle=orthogonalEdgeStyle;rounded=0;orthogonalLoop=1;jettySize=auto;html=1;entryX=0.5;entryY=0;entryDx=0;entryDy=0;exitX=0.88;exitY=0.02;exitDx=0;exitDy=0;exitPerimeter=0;" edge="1" parent="1" source="Te2QZDgjbKBpF7h5LiWf-80" target="Te2QZDgjbKBpF7h5LiWf-79">
          <mxGeometry relative="1" as="geometry">
            <Array as="points">
              <mxPoint x="119" y="490" />
              <mxPoint x="222" y="490" />
            </Array>
          </mxGeometry>
        </mxCell>
        <mxCell id="Te2QZDgjbKBpF7h5LiWf-98" style="edgeStyle=orthogonalEdgeStyle;rounded=0;orthogonalLoop=1;jettySize=auto;html=1;entryX=0;entryY=0.5;entryDx=0;entryDy=0;exitX=0.475;exitY=1.032;exitDx=0;exitDy=0;exitPerimeter=0;" edge="1" parent="1" source="Te2QZDgjbKBpF7h5LiWf-92" target="Te2QZDgjbKBpF7h5LiWf-54">
          <mxGeometry relative="1" as="geometry">
            <Array as="points">
              <mxPoint x="220" y="320" />
              <mxPoint x="300" y="320" />
              <mxPoint x="300" y="170" />
            </Array>
          </mxGeometry>
        </mxCell>
        <mxCell id="Te2QZDgjbKBpF7h5LiWf-139" style="edgeStyle=orthogonalEdgeStyle;rounded=0;orthogonalLoop=1;jettySize=auto;html=1;" edge="1" parent="1" source="Te2QZDgjbKBpF7h5LiWf-113" target="Te2QZDgjbKBpF7h5LiWf-80">
          <mxGeometry relative="1" as="geometry" />
        </mxCell>
        <mxCell id="Te2QZDgjbKBpF7h5LiWf-113" value="&lt;span style=&quot;color: rgba(0, 0, 0, 0); font-family: monospace; font-size: 0px; text-align: start; text-wrap-mode: nowrap;&quot;&gt;%3CmxGraphModel%3E%3Croot%3E%3CmxCell%20id%3D%220%22%2F%3E%3CmxCell%20id%3D%221%22%20parent%3D%220%22%2F%3E%3CmxCell%20id%3D%222%22%20value%3D%22%22%20style%3D%22group%22%20vertex%3D%221%22%20connectable%3D%220%22%20parent%3D%221%22%3E%3CmxGeometry%20x%3D%22283%22%20y%3D%2240%22%20width%3D%22120%22%20height%3D%22710%22%20as%3D%22geometry%22%2F%3E%3C%2FmxCell%3E%3CmxCell%20id%3D%223%22%20value%3D%22%22%20style%3D%22rounded%3D0%3BwhiteSpace%3Dwrap%3Bhtml%3D1%3B%22%20vertex%3D%221%22%20parent%3D%222%22%3E%3CmxGeometry%20width%3D%22120%22%20height%3D%22710%22%20as%3D%22geometry%22%2F%3E%3C%2FmxCell%3E%3CmxCell%20id%3D%224%22%20value%3D%22Cashier%22%20style%3D%22rounded%3D0%3BwhiteSpace%3Dwrap%3Bhtml%3D1%3BfillColor%3D%23e1d5e7%3BstrokeColor%3D%239673a6%3B%22%20vertex%3D%221%22%20parent%3D%222%22%3E%3CmxGeometry%20width%3D%22120%22%20height%3D%2220%22%20as%3D%22geometry%22%2F%3E%3C%2FmxCell%3E%3CmxCell%20id%3D%225%22%20value%3D%22%26lt%3Bspan%20style%3D%26quot%3Bfont-size%3A%206px%3B%26quot%3B%26gt%3Bproduct%20identifier%26lt%3B%2Fspan%26gt%3B%22%20style%3D%22rounded%3D1%3BwhiteSpace%3Dwrap%3Bhtml%3D1%3B%22%20vertex%3D%221%22%20parent%3D%222%22%3E%3CmxGeometry%20x%3D%2234.5%22%20y%3D%22160%22%20width%3D%2251%22%20height%3D%2220%22%20as%3D%22geometry%22%2F%3E%3C%2FmxCell%3E%3CmxCell%20id%3D%226%22%20value%3D%22%22%20style%3D%22rhombus%3BwhiteSpace%3Dwrap%3Bhtml%3D1%3BfillColor%3D%23121212%3B%22%20vertex%3D%221%22%20parent%3D%222%22%3E%3CmxGeometry%20x%3D%2251%22%20y%3D%22120%22%20width%3D%2220%22%20height%3D%2220%22%20as%3D%22geometry%22%2F%3E%3C%2FmxCell%3E%3CmxCell%20id%3D%227%22%20value%3D%22%26lt%3Bfont%20style%3D%26quot%3Bfont-size%3A%206px%3B%26quot%3B%26gt%3Bis%20empty%3F%26lt%3B%2Ffont%26gt%3B%22%20style%3D%22text%3Bhtml%3D1%3Balign%3Dcenter%3BverticalAlign%3Dmiddle%3BwhiteSpace%3Dwrap%3Brounded%3D0%3B%22%20vertex%3D%221%22%20parent%3D%222%22%3E%3CmxGeometry%20x%3D%2260%22%20y%3D%22110%22%20width%3D%2240%22%20height%3D%2210%22%20as%3D%22geometry%22%2F%3E%3C%2FmxCell%3E%3CmxCell%20id%3D%228%22%20style%3D%22edgeStyle%3DorthogonalEdgeStyle%3Brounded%3D0%3BorthogonalLoop%3D1%3BjettySize%3Dauto%3Bhtml%3D1%3BfillColor%3D%23d5e8d4%3BstrokeColor%3D%23000000%3B%22%20edge%3D%221%22%20parent%3D%222%22%20source%3D%226%22%3E%3CmxGeometry%20relative%3D%221%22%20as%3D%22geometry%22%3E%3CmxPoint%20x%3D%2261%22%20y%3D%22160%22%20as%3D%22targetPoint%22%2F%3E%3CArray%20as%3D%22points%22%3E%3CmxPoint%20x%3D%2261%22%20y%3D%22160%22%2F%3E%3C%2FArray%3E%3C%2FmxGeometry%3E%3C%2FmxCell%3E%3CmxCell%20id%3D%229%22%20value%3D%22%26lt%3Bspan%20style%3D%26quot%3Bfont-size%3A%206px%3B%26quot%3B%26gt%3Bcalc%20sale%20and%20tax%20pay%26lt%3B%2Fspan%26gt%3B%22%20style%3D%22rounded%3D1%3BwhiteSpace%3Dwrap%3Bhtml%3D1%3B%22%20vertex%3D%221%22%20parent%3D%222%22%3E%3CmxGeometry%20x%3D%2235.5%22%20y%3D%22320%22%20width%3D%2251%22%20height%3D%2230%22%20as%3D%22geometry%22%2F%3E%3C%2FmxCell%3E%3CmxCell%20id%3D%2210%22%20value%3D%22%22%20style%3D%22rounded%3D0%3BwhiteSpace%3Dwrap%3Bhtml%3D1%3BfillColor%3D%23121212%3B%22%20vertex%3D%221%22%20parent%3D%222%22%3E%3CmxGeometry%20x%3D%2228.25%22%20y%3D%22370%22%20width%3D%2265.5%22%20height%3D%2210%22%20as%3D%22geometry%22%2F%3E%3C%2FmxCell%3E%3C%2Froot%3E%3C%2FmxGraphModel%3E&lt;/span&gt;" style="rhombus;whiteSpace=wrap;html=1;fillColor=#121212;" vertex="1" parent="1">
          <mxGeometry x="332" y="420" width="20" height="20" as="geometry" />
        </mxCell>
        <mxCell id="Te2QZDgjbKBpF7h5LiWf-115" style="edgeStyle=orthogonalEdgeStyle;rounded=0;orthogonalLoop=1;jettySize=auto;html=1;entryX=0.5;entryY=0;entryDx=0;entryDy=0;" edge="1" parent="1" source="Te2QZDgjbKBpF7h5LiWf-76" target="Te2QZDgjbKBpF7h5LiWf-113">
          <mxGeometry relative="1" as="geometry">
            <Array as="points">
              <mxPoint x="342" y="390" />
              <mxPoint x="342" y="390" />
            </Array>
          </mxGeometry>
        </mxCell>
        <mxCell id="Te2QZDgjbKBpF7h5LiWf-127" value="&lt;font style=&quot;font-size: 6px;&quot;&gt;delete item?&lt;/font&gt;" style="text;html=1;align=center;verticalAlign=middle;whiteSpace=wrap;rounded=0;" vertex="1" parent="1">
          <mxGeometry x="347" y="413" width="40" height="10" as="geometry" />
        </mxCell>
        <mxCell id="Te2QZDgjbKBpF7h5LiWf-129" style="edgeStyle=orthogonalEdgeStyle;rounded=0;orthogonalLoop=1;jettySize=auto;html=1;entryX=0.857;entryY=-0.132;entryDx=0;entryDy=0;entryPerimeter=0;" edge="1" parent="1" source="Te2QZDgjbKBpF7h5LiWf-113">
          <mxGeometry relative="1" as="geometry">
            <mxPoint x="364.3835" y="475.67999999999995" as="targetPoint" />
            <Array as="points">
              <mxPoint x="364" y="430" />
            </Array>
          </mxGeometry>
        </mxCell>
        <mxCell id="Te2QZDgjbKBpF7h5LiWf-132" style="edgeStyle=orthogonalEdgeStyle;rounded=0;orthogonalLoop=1;jettySize=auto;html=1;entryX=1;entryY=0.5;entryDx=0;entryDy=0;" edge="1" parent="1" source="Te2QZDgjbKBpF7h5LiWf-130" target="Te2QZDgjbKBpF7h5LiWf-131">
          <mxGeometry relative="1" as="geometry" />
        </mxCell>
        <mxCell id="Te2QZDgjbKBpF7h5LiWf-135" style="edgeStyle=orthogonalEdgeStyle;rounded=0;orthogonalLoop=1;jettySize=auto;html=1;" edge="1" parent="1" source="Te2QZDgjbKBpF7h5LiWf-133" target="Te2QZDgjbKBpF7h5LiWf-113">
          <mxGeometry relative="1" as="geometry" />
        </mxCell>
        <mxCell id="Te2QZDgjbKBpF7h5LiWf-133" value="&lt;span style=&quot;font-size: 6px;&quot;&gt;show new product&lt;/span&gt;" style="rounded=1;whiteSpace=wrap;html=1;" vertex="1" parent="1">
          <mxGeometry x="197.5" y="450" width="51" height="20" as="geometry" />
        </mxCell>
        <mxCell id="Te2QZDgjbKBpF7h5LiWf-134" style="edgeStyle=orthogonalEdgeStyle;rounded=0;orthogonalLoop=1;jettySize=auto;html=1;" edge="1" parent="1" source="Te2QZDgjbKBpF7h5LiWf-131" target="Te2QZDgjbKBpF7h5LiWf-133">
          <mxGeometry relative="1" as="geometry" />
        </mxCell>
        <mxCell id="Te2QZDgjbKBpF7h5LiWf-141" style="edgeStyle=orthogonalEdgeStyle;rounded=0;orthogonalLoop=1;jettySize=auto;html=1;entryX=1.013;entryY=0.616;entryDx=0;entryDy=0;entryPerimeter=0;" edge="1" parent="1" source="Te2QZDgjbKBpF7h5LiWf-88" target="Te2QZDgjbKBpF7h5LiWf-90">
          <mxGeometry relative="1" as="geometry" />
        </mxCell>
      </root>
    </mxGraphModel>
  </diagram>
</mxfile>
